<svg width="26" height="26" viewBox="0 0 26 26" fill="none" xmlns="http://www.w3.org/2000/svg">
<path d="M21.75 3.22223H4.02776C2.24818 3.22223 0.805542 4.66487 0.805542 6.44445V19.3333C0.805542 21.1129 2.24818 22.5556 4.02776 22.5556H21.75C23.5296 22.5556 24.9722 21.1129 24.9722 19.3333V6.44445C24.9722 4.66487 23.5296 3.22223 21.75 3.22223Z" fill="white"/>
<path d="M1.31946 4.70928H24.4582C23.8855 3.81673 22.8898 3.22223 21.75 3.22223H4.02774C2.88868 3.22223 1.89301 3.81673 1.31946 4.70928Z" fill="#A62842"/>
<path d="M1.63528 6.19635C1.62884 6.27932 1.61111 6.35907 1.61111 6.44446V7.68421H24.9722V6.44446C24.9722 6.35988 24.9545 6.28013 24.9481 6.19635H1.63528Z" fill="#A62842"/>
<path d="M1.61111 9.17126H24.9722V10.6583H1.61111V9.17126Z" fill="#A62842"/>
<path d="M1.61111 12.1454H24.9722V13.6324H1.61111V12.1454Z" fill="#A62842"/>
<path d="M0.805542 15.1195H24.9722V16.6065H0.805542V15.1195Z" fill="#A62842"/>
<path d="M0.805542 19.3333C0.805542 19.4179 0.82407 19.4977 0.830514 19.5814H24.9472C24.9537 19.4985 24.9722 19.4187 24.9722 19.3333V18.0936H0.805542V19.3333Z" fill="#A62842"/>
<path d="M24.4582 21.0685H1.31946C1.89221 21.9611 2.88787 22.5556 4.02774 22.5556H21.75C22.889 22.5556 23.8847 21.9611 24.4582 21.0685Z" fill="#A62842"/>
<path d="M4.02776 3.22223H12.8889V13.6324H0.805542V6.44445C0.805542 4.66578 2.2491 3.22223 4.02776 3.22223Z" fill="#102D5E"/>
<path opacity="0.15" d="M21.75 3.22223H4.02776C2.24829 3.22223 0.805542 4.66498 0.805542 6.44445V19.3333C0.805542 21.1128 2.24829 22.5556 4.02776 22.5556H21.75C23.5295 22.5556 24.9722 21.1128 24.9722 19.3333V6.44445C24.9722 4.66498 23.5295 3.22223 21.75 3.22223ZM24.1667 19.3333C24.1667 20.6657 23.0824 21.75 21.75 21.75H4.02776C2.69538 21.75 1.6111 20.6657 1.6111 19.3333V6.44445C1.6111 5.11206 2.69538 4.02778 4.02776 4.02778H21.75C23.0824 4.02778 24.1667 5.11206 24.1667 6.44445V19.3333Z" fill="white"/>
<path opacity="0.2" d="M21.75 4.02777H4.02778C2.69298 4.02777 1.61111 5.10963 1.61111 6.44444V7.24999C1.61111 5.91519 2.69298 4.83333 4.02778 4.83333H21.75C23.0848 4.83333 24.1667 5.91519 24.1667 7.24999V6.44444C24.1667 5.10963 23.0848 4.02777 21.75 4.02777Z" fill="white"/>
<path d="M3.70639 6.01187L4.18328 5.66548H3.59442L3.41237 5.10562L3.23031 5.66548H2.64145L3.11753 6.01187L2.93548 6.57173L3.41237 6.22615L3.88845 6.57173L3.70639 6.01187Z" fill="white"/>
<path d="M6.10614 6.01187L6.58303 5.66548H5.99417L5.81212 5.10562L5.63006 5.66548H5.0412L5.51728 6.01187L5.33523 6.57173L5.81212 6.22615L6.2882 6.57173L6.10614 6.01187Z" fill="white"/>
<path d="M8.50673 6.01187L8.98281 5.66548H8.39395L8.2119 5.10562L8.02984 5.66548H7.44098L7.91706 6.01187L7.73581 6.57173L8.2119 6.22615L8.68798 6.57173L8.50673 6.01187Z" fill="white"/>
<path d="M4.88651 7.47797L5.3634 7.13238H4.77454L4.59248 6.57172L4.41042 7.13238H3.82156L4.29765 7.47797L4.11559 8.03863L4.59248 7.69224L5.06856 8.03863L4.88651 7.47797Z" fill="white"/>
<path d="M7.28706 7.47797L7.76315 7.13238H7.17429L6.99223 6.57172L6.81017 7.13238H6.22131L6.6974 7.47797L6.51615 8.03863L6.99223 7.69224L7.46831 8.03863L7.28706 7.47797Z" fill="white"/>
<path d="M9.68681 7.47797L10.1629 7.13238H9.57404L9.39198 6.57172L9.20992 7.13238H8.62106L9.09795 7.47797L8.9159 8.03863L9.39198 7.69224L9.86887 8.03863L9.68681 7.47797Z" fill="white"/>
<path d="M4.88651 10.411L5.3634 10.0646H4.77454L4.59248 9.50476L4.41042 10.0646H3.82156L4.29765 10.411L4.11559 10.9709L4.59248 10.6253L5.06856 10.9709L4.88651 10.411Z" fill="white"/>
<path d="M7.28706 10.411L7.76315 10.0646H7.17429L6.99223 9.50476L6.81017 10.0646H6.22131L6.6974 10.411L6.51615 10.9709L6.99223 10.6253L7.46831 10.9709L7.28706 10.411Z" fill="white"/>
<path d="M9.68681 10.411L10.1629 10.0646H9.57404L9.39198 9.50476L9.20992 10.0646H8.62106L9.09795 10.411L8.9159 10.9709L9.39198 10.6253L9.86887 10.9709L9.68681 10.411Z" fill="white"/>
<path d="M10.9064 6.01187L11.3824 5.66548H10.7936L10.6115 5.10562L10.4295 5.66548H9.84061L10.3175 6.01187L10.1354 6.57173L10.6115 6.22615L11.0884 6.57173L10.9064 6.01187Z" fill="white"/>
<path d="M3.70639 8.94489L4.18328 8.5985H3.59442L3.41237 8.03864L3.23031 8.5985H2.64145L3.11753 8.94489L2.93548 9.50475L3.41237 9.15836L3.88845 9.50475L3.70639 8.94489Z" fill="white"/>
<path d="M6.10614 8.94489L6.58303 8.5985H5.99417L5.81212 8.03864L5.63006 8.5985H5.0412L5.51728 8.94489L5.33523 9.50475L5.81212 9.15836L6.2882 9.50475L6.10614 8.94489Z" fill="white"/>
<path d="M8.50673 8.94489L8.98281 8.5985H8.39395L8.2119 8.03864L8.02984 8.5985H7.44098L7.91706 8.94489L7.73581 9.50475L8.2119 9.15836L8.68798 9.50475L8.50673 8.94489Z" fill="white"/>
<path d="M10.9064 8.94489L11.3824 8.5985H10.7936L10.6115 8.03864L10.4295 8.5985H9.84061L10.3175 8.94489L10.1354 9.50475L10.6115 9.15836L11.0884 9.50475L10.9064 8.94489Z" fill="white"/>
<path d="M3.70639 11.8771L4.18328 11.5315H3.59442L3.41237 10.9709L3.23031 11.5315H2.64145L3.11753 11.8771L2.93548 12.4378L3.41237 12.0914L3.88845 12.4378L3.70639 11.8771Z" fill="white"/>
<path d="M6.10614 11.8771L6.58303 11.5315H5.99417L5.81212 10.9709L5.63006 11.5315H5.0412L5.51728 11.8771L5.33523 12.4378L5.81212 12.0914L6.2882 12.4378L6.10614 11.8771Z" fill="white"/>
<path d="M8.50673 11.8771L8.98281 11.5315H8.39395L8.2119 10.9709L8.02984 11.5315H7.44098L7.91706 11.8771L7.73581 12.4378L8.2119 12.0914L8.68798 12.4378L8.50673 11.8771Z" fill="white"/>
<path d="M10.9064 11.8771L11.3824 11.5315H10.7936L10.6115 10.9709L10.4295 11.5315H9.84061L10.3175 11.8771L10.1354 12.4378L10.6115 12.0914L11.0884 12.4378L10.9064 11.8771Z" fill="white"/>
</svg>
