<svg width="224" height="377" viewBox="0 0 224 377" fill="none" xmlns="http://www.w3.org/2000/svg">
<path d="M310.395 226.578C319.606 199.301 314.405 181.606 312.426 152.883C309.604 111.932 322.207 76.5342 290.885 50.0035C267.401 30.1125 244.466 27.8107 214.049 32.4947C166.241 39.8567 158.105 83.3291 125.087 118.678C90.4758 155.733 24.2014 170.425 41.5463 218.071C59.4124 267.15 147.759 188.965 174.345 233.921C189.746 259.964 162.259 285.858 178.672 311.274C211.848 362.65 290.828 284.521 310.395 226.578Z" fill="#E58411" fill-opacity="0.6"/>
<path d="M295.01 221.334C302.989 197.748 298.497 182.452 296.796 157.62C294.37 122.217 305.287 91.6089 278.199 68.6837C257.89 51.496 238.049 49.5147 211.733 53.5759C170.37 59.959 163.315 97.5464 134.736 128.12C104.778 160.169 47.4365 172.897 62.4238 214.083C77.8617 256.507 154.323 188.878 177.306 227.735C190.62 250.244 166.83 272.641 181.02 294.609C209.703 339.013 278.06 271.436 295.01 221.334Z" fill="#E58411"/>
</svg>
