<svg width="215" height="348" viewBox="0 0 215 348" fill="none" xmlns="http://www.w3.org/2000/svg">
<path d="M259.708 105.077C243.425 81.3332 226.152 74.8675 201.994 59.2049C167.552 36.8739 146.811 5.54265 106.789 14.6615C76.7824 21.4982 61.171 38.4573 46.6542 65.5937C23.8372 108.245 53.7168 140.853 62.1609 188.482C71.0123 238.408 42.9695 300.228 91.4858 314.965C141.46 330.145 131.981 212.552 183.894 218.284C213.967 221.604 218.171 259.132 248.351 261.267C309.356 265.583 294.296 155.513 259.708 105.077Z" fill="#E58411" fill-opacity="0.6"/>
<path d="M246.278 114.231C232.207 93.6888 217.277 88.097 196.398 74.5484C166.63 55.2316 148.707 28.1245 114.111 36.0219C88.1722 41.9428 74.675 56.62 62.122 80.1034C42.3918 117.013 68.2139 145.223 75.5047 186.435C83.1473 229.634 58.8966 283.131 100.831 295.875C144.026 309.001 135.852 207.251 180.725 212.201C206.719 215.069 210.347 247.541 236.434 249.383C289.165 253.107 276.167 157.867 246.278 114.231Z" fill="#E58411"/>
</svg>
