<svg width="236" height="377" viewBox="0 0 236 377" fill="none" xmlns="http://www.w3.org/2000/svg">
<path d="M154.395 226.578C163.606 199.301 158.405 181.605 156.426 152.883C153.604 111.932 166.207 76.5339 134.885 50.0032C111.401 30.1123 88.4659 27.8104 58.0492 32.4944C10.2414 39.8564 2.10533 83.3289 -30.913 118.678C-65.5242 155.733 -131.799 170.425 -114.454 218.071C-96.5876 267.149 -8.24132 188.965 18.3448 233.921C33.7457 259.963 6.25871 285.858 22.6718 311.274C55.8485 362.65 134.828 284.521 154.395 226.578Z" fill="#E58411" fill-opacity="0.6"/>
<path d="M139.01 221.334C146.99 197.748 142.497 182.451 140.796 157.62C138.37 122.217 149.287 91.6086 122.199 68.6835C101.89 51.4957 82.0493 49.5145 55.7329 53.5756C14.37 59.9588 7.31457 97.5461 -21.2642 128.12C-51.2217 160.169 -108.563 172.896 -93.5761 214.082C-78.1383 256.506 -1.67712 188.878 21.3062 227.735C34.62 250.244 10.8302 272.641 25.02 294.609C53.7026 339.013 122.06 271.436 139.01 221.334Z" fill="#E58411"/>
</svg>
