<svg width="26" height="26" viewBox="0 0 26 26" fill="none" xmlns="http://www.w3.org/2000/svg">
<path d="M0.805542 8.86111H24.9722V16.9167H0.805542V8.86111Z" fill="white"/>
<path d="M4.02776 3.22223H21.75C23.5287 3.22223 24.9722 4.66578 24.9722 6.44445V9.66667H0.805542V6.44445C0.805542 4.66578 2.2491 3.22223 4.02776 3.22223Z" fill="#BE2A2C"/>
<path d="M21.75 22.5555L4.02779 22.5555C2.24912 22.5555 0.805563 21.112 0.805563 19.3333V16.1111L24.9722 16.1111V19.3333C24.9722 21.112 23.5287 22.5555 21.75 22.5555Z" fill="black"/>
<path opacity="0.15" d="M21.75 3.22223H4.02776C2.24829 3.22223 0.805542 4.66498 0.805542 6.44445V19.3333C0.805542 21.1128 2.24829 22.5556 4.02776 22.5556H21.75C23.5295 22.5556 24.9722 21.1128 24.9722 19.3333V6.44445C24.9722 4.66498 23.5295 3.22223 21.75 3.22223ZM24.1667 19.3333C24.1667 20.6657 23.0824 21.75 21.75 21.75H4.02776C2.69538 21.75 1.6111 20.6657 1.6111 19.3333V6.44445C1.6111 5.11206 2.69538 4.02778 4.02776 4.02778H21.75C23.0824 4.02778 24.1667 5.11206 24.1667 6.44445V19.3333Z" fill="black"/>
<path fill-rule="evenodd" clip-rule="evenodd" d="M14.9028 14.7956C14.8738 14.0851 14.7916 12.1752 14.761 11.4397C14.6563 10.5987 13.8499 11.4735 13.3899 11.3978C13.141 11.0442 13.4238 9.87612 12.7302 10.1871C12.5699 10.1556 12.416 10.1097 12.3757 10.2467C12.3572 10.3103 12.3604 10.3901 12.3878 10.3675C12.5054 10.2708 12.6359 10.4086 12.6553 10.5262C12.7052 10.7566 12.5344 11.2158 12.3798 11.3978C11.923 11.4679 11.1199 10.6019 11.0168 11.4397L10.875 14.7956L11.9625 13.8233L11.7297 14.649C11.6491 14.6353 11.575 14.5749 11.5041 14.6313C11.3769 14.6249 11.3189 14.7755 11.3624 14.8625C11.368 14.8504 11.3793 14.8416 11.3922 14.8335C11.3736 14.8577 11.3616 14.8907 11.3616 14.9334C11.252 14.91 11.227 15.0736 11.1457 15.0736C11.2158 15.0929 11.1626 15.2371 11.2907 15.2798C11.5041 15.7615 14.2688 15.7647 14.4847 15.2798C14.6128 15.2371 14.5604 15.0929 14.6297 15.0736C14.5483 15.0736 14.5226 14.91 14.4138 14.9334C14.4138 14.8907 14.4025 14.8585 14.384 14.8335C14.3977 14.8408 14.4082 14.8496 14.4138 14.8625C14.4573 14.7755 14.3993 14.6249 14.272 14.6313C14.2011 14.5749 14.1262 14.6353 14.0457 14.649L13.8129 13.8233C13.8129 13.8233 14.8996 14.794 14.9012 14.7956H14.9028Z" fill="#C09300"/>
<path fill-rule="evenodd" clip-rule="evenodd" d="M14.6485 15.0711C14.6419 15.0711 14.6362 15.072 14.6313 15.0736C14.637 15.0736 14.6428 15.0736 14.6485 15.0711Z" fill="#C09300"/>
<path fill-rule="evenodd" clip-rule="evenodd" d="M11.1468 15.0736C11.1419 15.072 11.1361 15.0711 11.1296 15.0711C11.1353 15.0728 11.1419 15.0736 11.1468 15.0736Z" fill="#C09300"/>
<path opacity="0.2" d="M21.75 4.02777H4.02778C2.69298 4.02777 1.61111 5.10963 1.61111 6.44444V7.24999C1.61111 5.91519 2.69298 4.83333 4.02778 4.83333H21.75C23.0848 4.83333 24.1667 5.91519 24.1667 7.24999V6.44444C24.1667 5.10963 23.0848 4.02777 21.75 4.02777Z" fill="white"/>
</svg>
