<svg width="28" height="28" viewBox="0 0 28 28" fill="none" xmlns="http://www.w3.org/2000/svg">
<path d="M11.3327 27.3333C12.8054 27.3333 13.9993 26.1394 13.9993 24.6667C13.9993 23.1939 12.8054 22 11.3327 22C9.85992 22 8.66602 23.1939 8.66602 24.6667C8.66602 26.1394 9.85992 27.3333 11.3327 27.3333Z" fill="#B6B6B6"/>
<path d="M19.3327 27.3333C20.8054 27.3333 21.9993 26.1394 21.9993 24.6667C21.9993 23.1939 20.8054 22 19.3327 22C17.8599 22 16.666 23.1939 16.666 24.6667C16.666 26.1394 17.8599 27.3333 19.3327 27.3333Z" fill="#B6B6B6"/>
<path d="M26.7994 8.40008C26.266 7.73341 25.466 7.33341 24.666 7.33341H9.46602L8.66602 2.80008C8.39935 1.60008 7.33268 0.666748 5.99935 0.666748H3.33268C1.86602 0.666748 0.666016 1.86675 0.666016 3.33341C0.666016 4.80008 1.86602 6.00008 3.33268 6.00008H3.73268L5.99935 17.2001C6.26602 18.5334 7.33268 19.3334 8.66602 19.3334H21.9994C23.1994 19.3334 24.1327 18.5334 24.5327 17.4667L27.1994 10.8001C27.466 10.0001 27.3327 9.20008 26.7994 8.40008Z" fill="#B6B6B6"/>
</svg>
