<svg width="32" height="32" viewBox="0 0 32 32" fill="none" xmlns="http://www.w3.org/2000/svg">
<path d="M2.66667 8.63685C2.66667 6.80109 2.66667 5.88322 2.96224 5.15763C3.3686 4.16011 4.1601 3.36862 5.15762 2.96226C5.8832 2.66669 6.80107 2.66669 8.63683 2.66669C10.4726 2.66669 11.3905 2.66669 12.116 2.96226C13.1136 3.36862 13.9051 4.16011 14.3115 5.15763C14.6069 5.88322 14.6069 6.80109 14.6069 8.63685C14.6069 10.4726 14.6069 11.3905 14.3115 12.116C13.9051 13.1136 13.1136 13.9051 12.116 14.3115C11.3905 14.607 10.4726 14.607 8.63683 14.607C6.80107 14.607 5.8832 14.607 5.15762 14.3115C4.1601 13.9051 3.3686 13.1136 2.96224 12.116C2.66667 11.3905 2.66667 10.4726 2.66667 8.63685Z" fill="#B6B6B6"/>
<path d="M2.66667 23.3632C2.66667 21.5275 2.66667 20.6096 2.96224 19.884C3.3686 18.8865 4.1601 18.0949 5.15762 17.6887C5.8832 17.3931 6.80107 17.3931 8.63683 17.3931C10.4726 17.3931 11.3905 17.3931 12.116 17.6887C13.1136 18.0949 13.9051 18.8865 14.3115 19.884C14.6069 20.6096 14.6069 21.5275 14.6069 23.3632C14.6069 25.1989 14.6069 26.1168 14.3115 26.8424C13.9051 27.84 13.1136 28.6315 12.116 29.0377C11.3905 29.3333 10.4726 29.3333 8.63683 29.3333C6.80107 29.3333 5.8832 29.3333 5.15762 29.0377C4.1601 28.6315 3.3686 27.84 2.96224 26.8424C2.66667 26.1168 2.66667 25.1989 2.66667 23.3632Z" fill="#B6B6B6"/>
<path d="M17.3932 23.3632C17.3932 21.5275 17.3932 20.6096 17.6888 19.884C18.0952 18.8865 18.8867 18.0949 19.8841 17.6887C20.6097 17.3931 21.5276 17.3931 23.3633 17.3931C25.1992 17.3931 26.1171 17.3931 26.8425 17.6887C27.8401 18.0949 28.6316 18.8865 29.038 19.884C29.3336 20.6096 29.3336 21.5275 29.3336 23.3632C29.3336 25.1989 29.3336 26.1168 29.038 26.8424C28.6316 27.84 27.8401 28.6315 26.8425 29.0377C26.1171 29.3333 25.1992 29.3333 23.3633 29.3333C21.5276 29.3333 20.6097 29.3333 19.8841 29.0377C18.8867 28.6315 18.0952 27.84 17.6888 26.8424C17.3932 26.1168 17.3932 25.1989 17.3932 23.3632Z" fill="#B6B6B6"/>
<path fill-rule="evenodd" clip-rule="evenodd" d="M22.3633 12.6369C22.3633 13.1892 22.8109 13.637 23.3633 13.637C23.9156 13.637 24.3633 13.1892 24.3633 12.6369V9.6369H27.3633C27.9156 9.6369 28.3633 9.18918 28.3633 8.6369C28.3633 8.08462 27.9156 7.6369 27.3633 7.6369H24.3633V4.6369C24.3633 4.08462 23.9156 3.6369 23.3633 3.6369C22.8109 3.6369 22.3633 4.08462 22.3633 4.6369V7.6369H19.3633C18.8109 7.6369 18.3633 8.08462 18.3633 8.6369C18.3633 9.18918 18.8109 9.6369 19.3633 9.6369H22.3633V12.6369Z" fill="#B6B6B6"/>
</svg>
