<svg width="30" height="28" viewBox="0 0 30 28" fill="none" xmlns="http://www.w3.org/2000/svg">
<path d="M29.854 14.548C29.523 15.43 28.703 16 27.764 16H27V27C27 27.552 26.552 28 26 28H20V21C20 18.243 17.757 16 15 16C12.243 16 10 18.243 10 21V28H4.00003C3.44803 28 3.00003 27.552 3.00003 27V16H2.23503C1.29603 16 0.476026 15.431 0.145026 14.549C-0.185974 13.667 0.0570264 12.697 0.765026 12.079L12.444 1.01897C13.878 -0.338029 16.123 -0.338029 17.556 1.01897L29.263 12.105C29.941 12.696 30.185 13.666 29.854 14.548Z" fill="#B6B6B6"/>
</svg>
